<?xml version="1.0" standalone="no"?>
<!DOCTYPE svg PUBLIC "-//W3C//DTD SVG 20010904//EN"
 "http://www.w3.org/TR/2001/REC-SVG-20010904/DTD/svg10.dtd">
<svg version="1.0" xmlns="http://www.w3.org/2000/svg"
 width="156.000000pt" height="153.000000pt" viewBox="0 0 156.000000 153.000000"
 preserveAspectRatio="xMidYMid meet">

<g transform="translate(0.000000,153.000000) scale(0.100000,-0.100000)"
fill="#000000" stroke="none">
<path d="M450 835 c0 -24 5 -35 14 -35 29 0 46 13 46 35 0 22 -17 35 -46 35
-9 0 -14 -11 -14 -35z m45 0 c0 -11 -8 -21 -17 -23 -14 -3 -18 3 -18 23 0 20
4 26 18 23 9 -2 17 -12 17 -23z"/>
<path d="M530 835 c0 -32 2 -35 28 -34 23 2 24 2 5 6 -27 5 -30 20 -5 26 16 4
16 5 0 6 -26 2 -22 19 5 24 19 4 18 4 -5 6 -26 1 -28 -2 -28 -34z"/>
<path d="M594 859 c-4 -7 4 -20 17 -31 l24 -20 -23 5 c-12 3 -20 1 -16 -4 7
-13 31 -11 40 3 4 6 -1 17 -12 25 -16 12 -17 15 -4 23 13 8 13 10 -2 10 -9 0
-20 -5 -24 -11z"/>
<path d="M663 835 c0 -22 2 -30 4 -17 2 12 2 30 0 40 -3 9 -5 -1 -4 -23z"/>
<path d="M694 856 c-3 -8 -4 -23 -2 -33 4 -24 51 -25 56 0 2 11 -3 17 -15 17
-14 0 -15 -2 -4 -9 9 -6 10 -11 2 -15 -6 -4 -15 -4 -21 -1 -18 11 -11 35 13
45 l22 9 -23 0 c-12 1 -25 -5 -28 -13z"/>
<path d="M771 834 c1 -25 3 -31 6 -16 l5 24 24 -23 24 -22 -1 39 c-1 25 -3 31
-6 16 l-5 -24 -24 23 -24 22 1 -39z"/>
<path d="M851 833 c0 -30 2 -34 9 -18 7 18 8 19 15 3 4 -10 12 -18 17 -18 7 0
6 5 -1 13 -7 10 -7 17 0 24 15 15 3 33 -22 33 -15 0 -19 -7 -18 -37z m34 17
c3 -5 -1 -10 -9 -10 -9 0 -16 5 -16 10 0 6 4 10 9 10 6 0 13 -4 16 -10z"/>
<path d="M923 838 c1 -25 7 -33 22 -33 16 0 20 7 22 35 1 33 1 33 -5 6 -10
-40 -29 -44 -36 -7 l-6 31 3 -32z"/>
<path d="M994 858 c-4 -6 0 -16 9 -23 21 -15 22 -29 2 -21 -8 3 -15 1 -15 -4
0 -6 9 -10 20 -10 25 0 27 35 3 45 -17 7 -16 8 2 15 16 7 17 9 3 9 -9 1 -20
-4 -24 -11z"/>
<path d="M1050 835 c0 -19 5 -35 10 -35 6 0 10 7 10 15 0 21 28 19 33 -2 3
-10 5 0 5 22 0 22 -2 32 -5 23 -5 -22 -33 -24 -33 -3 0 8 -4 15 -10 15 -5 0
-10 -16 -10 -35z"/>
<path d="M90 685 c0 -22 -4 -25 -34 -25 l-34 0 20 -63 21 -64 -21 -61 -21 -62
90 0 c87 0 89 1 79 20 -11 20 -8 20 575 20 583 0 586 0 575 -20 -10 -19 -8
-20 104 -20 l115 0 -21 62 -21 61 21 64 20 63 -44 0 c-40 0 -44 2 -44 25 l0
25 -690 0 -690 0 0 -25z m210 -73 c0 -4 -13 -23 -29 -42 -25 -30 -31 -33 -45
-21 -17 15 -22 41 -7 41 6 0 13 -5 16 -10 4 -6 15 0 27 15 19 24 38 33 38 17z
m87 -12 c3 -11 9 -20 13 -20 4 0 10 9 13 20 3 11 10 20 16 20 11 0 -4 -57 -20
-74 -11 -12 -15 -8 -34 37 -10 24 -12 37 -4 37 6 0 13 -9 16 -20z m186 6 c3
-7 1 -19 -3 -27 -5 -8 -4 -19 2 -26 8 -10 6 -13 -6 -13 -9 0 -16 6 -17 13 0
10 -2 10 -6 0 -3 -8 -23 -13 -49 -13 l-44 0 0 39 0 40 59 0 c38 -1 61 -5 64
-13z m37 -26 c0 -22 -4 -40 -10 -40 -5 0 -10 18 -10 40 0 22 5 40 10 40 6 0
10 -18 10 -40z m70 30 c0 -5 -10 -10 -22 -11 -22 0 -22 -1 2 -11 25 -11 25
-11 3 -15 -13 -3 -23 -11 -23 -19 0 -8 -4 -14 -10 -14 -5 0 -10 18 -10 40 0
38 2 40 30 40 17 0 30 -4 30 -10z m30 -30 c0 -22 -4 -40 -10 -40 -5 0 -10 18
-10 40 0 22 5 40 10 40 6 0 10 -18 10 -40z m70 30 c0 -5 -10 -11 -22 -11 -17
-1 -19 -2 -5 -6 9 -2 17 -8 17 -13 0 -5 -8 -11 -17 -13 -14 -4 -12 -5 5 -6 33
-2 27 -21 -8 -21 -28 0 -30 2 -30 40 0 38 2 40 30 40 17 0 30 -4 30 -10z m68
-2 c17 -17 15 -55 -4 -62 -41 -16 -54 -7 -54 34 0 35 3 40 23 40 13 0 28 -5
35 -12z m100 -21 c16 -45 17 -43 -23 -43 -19 0 -35 2 -35 5 0 18 26 71 35 71
6 0 16 -15 23 -33z m88 16 c3 -26 6 -27 14 -5 6 15 18 22 35 22 28 0 35 -19 8
-21 -17 -1 -17 -2 0 -6 9 -2 17 -9 17 -14 0 -5 -8 -10 -17 -10 -17 -1 -17 -2
0 -6 28 -7 19 -23 -13 -23 -22 0 -30 5 -30 18 -1 16 -1 16 -11 0 -25 -45 -93
-2 -69 43 13 22 64 24 66 2z m118 -5 l16 -22 0 22 c0 12 5 22 10 22 6 0 10
-18 10 -40 0 -40 -15 -54 -26 -25 -4 8 -10 15 -15 15 -5 0 -9 -7 -9 -15 0 -8
-4 -15 -10 -15 -5 0 -10 18 -10 40 0 45 11 51 34 18z m116 13 c0 -5 -10 -11
-22 -13 -13 -2 -23 -10 -23 -18 0 -8 10 -16 23 -18 29 -4 29 -22 -1 -22 -41 0
-62 41 -35 68 14 14 58 16 58 3z m34 -3 c5 -10 7 -10 12 0 3 6 13 12 21 12 14
0 13 -3 -1 -25 -9 -13 -16 -31 -16 -40 0 -23 -17 -18 -23 8 -2 12 -8 30 -12
40 -8 19 10 24 19 5z"/>
<path d="M485 600 c-17 -7 -17 -9 -2 -9 9 -1 17 -5 17 -10 0 -5 -8 -11 -17
-13 -15 -3 -14 -5 5 -10 19 -5 22 -2 22 23 0 16 -1 29 -2 28 -2 0 -12 -4 -23
-9z"/>
<path d="M810 580 c0 -11 7 -20 15 -20 8 0 15 9 15 20 0 11 -7 20 -15 20 -8 0
-15 -9 -15 -20z"/>
<path d="M987 594 c-10 -11 5 -34 22 -33 11 0 12 2 3 6 -10 4 -10 8 -1 19 9
11 8 14 -3 14 -8 0 -17 -3 -21 -6z"/>
<path d="M620 331 c0 -5 9 -7 20 -4 11 3 20 1 20 -4 0 -6 -9 -18 -20 -28 -28
-26 -25 -35 13 -34 17 1 24 3 15 6 -20 5 -23 18 -8 28 6 3 10 15 10 26 0 14
-7 19 -25 19 -14 0 -25 -4 -25 -9z"/>
<path d="M704 326 c-3 -8 -4 -25 -2 -38 2 -17 9 -23 28 -23 22 0 25 4 25 35 0
29 -4 36 -23 38 -13 2 -24 -3 -28 -12z m41 -26 c0 -27 -22 -39 -31 -16 -8 22
3 49 19 43 6 -2 12 -14 12 -27z"/>
<path d="M790 330 c0 -5 7 -7 15 -4 22 9 18 -16 -7 -43 l-21 -23 34 1 c19 1
26 3 17 6 -16 4 -16 6 -2 28 9 13 13 29 9 35 -8 13 -45 13 -45 0z"/>
<path d="M870 321 c-15 -29 -12 -41 10 -41 11 0 20 -6 20 -12 0 -9 3 -9 9 1
14 22 2 44 -15 30 -17 -14 -18 -5 -4 22 7 12 7 19 1 19 -6 0 -15 -9 -21 -19z"/>
</g>
</svg>
